<?xml version="1.0" encoding="UTF-8" standalone="no"?>
<svg width="30px" height="30px" viewBox="0 0 30 30" version="1.1" xmlns="http://www.w3.org/2000/svg" xmlns:xlink="http://www.w3.org/1999/xlink">
    <!-- Generator: Sketch 41.2 (35397) - http://www.bohemiancoding.com/sketch -->
    <title>Slice 1</title>
    <desc>Created with Sketch.</desc>
    <defs></defs>
    <g id="Page-1" stroke="none" stroke-width="1" fill="none" fill-rule="evenodd">
        <path d="M29.4347649,13.6638336 L16.3362406,0.566012451 C15.5823594,-0.188337484 14.3588992,-0.188337484 13.6040805,0.566012451 L10.8841082,3.28598479 L14.3345238,6.73640038 C15.1363355,6.46545785 16.0558057,6.64721904 16.6949582,7.28637152 C17.3371576,7.92962564 17.5176297,8.85694754 17.2401246,9.66133746 L20.5653816,12.9867117 C21.3698887,12.7095581 22.2981481,12.8888583 22.9406991,13.532464 C23.8387236,14.4301369 23.8387236,15.8850467 22.9406991,16.7833055 C22.0424402,17.6816816 20.5875304,17.6816816 19.6888028,16.7833055 C19.0133215,16.1071211 18.8464434,15.1151105 19.1884029,14.2829467 L16.0873297,11.1818735 L16.0869782,19.3426108 C16.3117804,19.4537634 16.5170982,19.6005886 16.6949582,19.7773845 C17.5929827,20.6750574 17.5929827,22.1300844 16.6949582,23.0290464 C15.7966994,23.9269537 14.3410864,23.9269537 13.4441166,23.0290464 C12.5460922,22.1300844 12.5460922,20.6751746 13.4441166,19.7775017 C13.6593224,19.5621874 13.9150768,19.3916712 14.1965915,19.2758127 L14.1965915,11.0390193 C13.9146671,10.9239315 13.6587684,10.7533191 13.4441166,10.5373303 C12.7637134,9.85786455 12.6001166,8.85952571 12.9487559,8.02408052 L9.54744277,4.62241584 L0.566026127,13.6032465 C-0.188675376,14.3582996 -0.188675376,15.581877 0.566026127,16.3363441 L13.6647848,29.4343997 C14.4189004,30.1888668 15.6421262,30.1888668 16.3971792,29.4343997 L29.4346477,16.3971656 C30.1891148,15.6424641 30.1891148,14.4181835 29.4346477,13.6638336" id="Shape" fill="#ffffff"></path>
    </g>
</svg>
