<?xml version="1.0" encoding="UTF-8" standalone="no"?>
<svg width="30px" height="30px" viewBox="0 0 30 30" version="1.1" xmlns="http://www.w3.org/2000/svg" xmlns:xlink="http://www.w3.org/1999/xlink">
    <!-- Generator: Sketch 41.2 (35397) - http://www.bohemiancoding.com/sketch -->
    <title>Slice 1</title>
    <desc>Created with Sketch.</desc>
    <defs></defs>
    <g id="Page-1" stroke="none" stroke-width="1" fill="none" fill-rule="evenodd">
        <g id="html5" transform="translate(2.000000, 0.000000)" fill="#ffffff">
            <g id="Page-1">
                <g id="html5-2">
                    <g id="Group">
                        <path d="M13.2177702,8.90905313 L8.556,8.90905313 L8.85752344,12.2876414 L13.2177702,12.2876414 L19.9922388,12.2876414 L20.8813333,12.2876414 L20.8008302,13.1736117 L20.0255154,21.8597391 L19.9758912,22.4171578 L13.2234375,24.2886203 L13.2234375,24.2891461 L13.2082523,24.2933602 L6.44976797,22.4171578 L5.98752891,17.2366945 L9.29956406,17.2366945 L9.53446172,19.8680859 L13.2090516,20.8602797 L13.2121029,20.8594629 L16.8918513,19.8659789 L17.2748224,15.5869617 L13.2177702,15.5869617 L5.84010938,15.5869617 L5.02919297,6.49483125 L4.95021563,5.60966016 L13.2177702,5.60966016 L21.4769693,5.60966016 L21.3980646,6.49483125 L21.2477388,8.16745078 L21.181549,8.90905313 L13.2177702,8.90905313 Z M2.44444688,27.012157 L0.0460640625,0.110671875 L26.4008836,0.110671875 L23.9998852,27.007943 L13.2073078,30 L2.44444688,27.012157 Z" id="Combined-Shape"></path>
                    </g>
                </g>
            </g>
        </g>
    </g>
</svg>
