<?xml version="1.0" encoding="UTF-8" standalone="no"?>
<svg width="30px" height="30px" viewBox="0 0 30 30" version="1.1" xmlns="http://www.w3.org/2000/svg" xmlns:xlink="http://www.w3.org/1999/xlink">
    <!-- Generator: Sketch 41.2 (35397) - http://www.bohemiancoding.com/sketch -->
    <title>Slice 1</title>
    <desc>Created with Sketch.</desc>
    <defs></defs>
    <g id="Page-1" stroke="none" stroke-width="1" fill="none" fill-rule="evenodd">
        <g id="jest" transform="translate(1.000000, 0.000000)" fill="#ffffff">
            <path d="M26.1200353,14.7565018 C26.1200353,13.0619788 24.8991519,11.6480565 23.2909187,11.3460424 L27.1378092,0 L8.95399293,0 L12.8067138,11.3690459 C11.2544523,11.714523 10.0900707,13.1017314 10.0900707,14.7565018 C10.0900707,15.9992226 10.7467845,17.0907774 11.7310601,17.7041343 C11.2576325,18.4093993 10.6962191,19.0731095 10.0528622,19.68 C9.03265018,20.6425442 7.8959364,21.3725088 6.6704947,21.8527208 C5.43625442,21.0773852 4.91448763,19.6153357 5.45639576,18.3415548 L5.49879859,18.2419081 L5.57840989,18.0544876 C6.93402827,17.5818021 7.90982332,16.2913781 7.90982332,14.7765371 C7.90982332,12.8625795 6.35268551,11.3055477 4.43872792,11.3055477 C2.52477032,11.3055477 0.967738516,12.8625795 0.967738516,14.7765371 C0.967738516,15.7425795 1.36473498,16.6173498 2.00374558,17.2472438 C1.88459646,17.4998385 1.76363929,17.7515764 1.64088339,18.0024382 C1.05657244,19.2025442 0.39434629,20.5628269 0.14385159,22.0733216 C-0.353639576,25.0732155 0.448727915,27.4713074 2.40318021,28.8258657 C3.58918728,29.6478445 4.79353357,29.9711661 6.00551237,29.9710601 C8.28773852,29.9709541 10.5962544,28.8244876 12.8542049,27.7029329 C14.4804594,26.895265 16.1619435,26.0600353 17.8229682,25.650424 C18.4409894,25.4979859 19.0769258,25.4062898 19.7501767,25.3091873 C21.0852297,25.1165724 22.4658657,24.9174912 23.6887633,24.209258 C25.1061837,23.3882332 26.0765724,22.0109894 26.3509187,20.430742 C26.5864664,19.0741696 26.3028975,17.715583 25.6115194,16.5632862 C25.9447518,16.0195969 26.1207724,15.3941861 26.1200353,14.7565018 L26.1200353,14.7565018 Z M24.7574205,14.7565018 C24.7574205,15.9190813 23.8116254,16.8649823 22.6489399,16.8649823 C21.4864664,16.8649823 20.5405654,15.9190813 20.5405654,14.7565018 C20.5405654,13.5939223 21.4864664,12.6481272 22.6489399,12.6481272 C23.8116254,12.6481272 24.7574205,13.5939223 24.7574205,14.7565018 L24.7574205,14.7565018 Z M25.2369965,1.36261484 L21.84,11.3816608 C21.6938404,11.4166385 21.5501383,11.4611868 21.4098233,11.5150177 L18.0540636,4.66929329 L14.6885512,11.474523 C14.5419413,11.4237828 14.3920561,11.3830532 14.2399293,11.3526148 L10.8545936,1.36261484 L25.2369965,1.36261484 L25.2369965,1.36261484 Z M13.5610601,12.6481272 C14.7236396,12.6481272 15.6694346,13.5939223 15.6694346,14.7565018 C15.6694346,15.9190813 14.7236396,16.8649823 13.5610601,16.8649823 C12.3985866,16.8649823 11.4526855,15.9190813 11.4526855,14.7565018 C11.4526855,13.5939223 12.3985866,12.6481272 13.5610601,12.6481272 L13.5610601,12.6481272 Z M4.43872792,12.6681625 C5.60141343,12.6681625 6.54720848,13.6139576 6.54720848,14.7765371 C6.54720848,15.9391166 5.60141343,16.8850177 4.43872792,16.8850177 C3.27625442,16.8850177 2.33035336,15.9391166 2.33035336,14.7765371 C2.33035336,13.6139576 3.27625442,12.6681625 4.43872792,12.6681625 L4.43872792,12.6681625 Z M25.0083392,20.1976325 C24.8032155,21.3793993 24.0732509,22.4118021 23.0057597,23.0300353 C22.0106714,23.6063958 20.8181979,23.7784452 19.5556537,23.9604594 C18.8793286,24.0579859 18.179894,24.1589046 17.4966784,24.3274558 C15.690106,24.7728975 13.9402473,25.6420495 12.2480565,26.4825795 C8.86166078,28.1645936 5.9370318,29.6171025 3.17946996,27.7059011 C1.1595053,26.3059717 1.25279152,23.715689 1.48812721,22.2962544 C1.70618375,20.9812367 2.29579505,19.770106 2.86600707,18.5988339 C2.96302531,18.399732 3.0592099,18.200225 3.1545583,18.000318 C3.44207391,18.1153969 3.74380945,18.1911339 4.05159011,18.225477 C3.47120141,20.1411307 4.38402827,22.2239576 6.29989399,23.2082332 L6.56204947,23.3429682 L6.83978799,23.2440636 C8.35441696,22.7046996 9.75,21.8390459 10.9879505,20.6711661 C11.7881979,19.9162898 12.4758657,19.0810601 13.0413074,18.1885866 C13.2133428,18.2145359 13.3870787,18.2275758 13.5610601,18.2275972 C15.4750177,18.2275972 17.0321555,16.6705654 17.0321555,14.7565018 C17.0321555,13.7271731 16.5813074,12.8015194 15.8672438,12.165265 L18.0486572,7.75409894 L20.2522261,12.2493286 C19.5910601,12.8817668 19.1779505,13.7714841 19.1779505,14.7565018 C19.1779505,16.6705654 20.7349823,18.2275972 22.6489399,18.2275972 C23.3569209,18.2282274 24.0479592,18.0110566 24.6283039,17.6055477 C25.0184099,18.4040989 25.1637456,19.3026148 25.0083392,20.1976325 L25.0083392,20.1976325 Z" id="Shape"></path>
        </g>
    </g>
</svg>
