<?xml version="1.0" encoding="UTF-8" standalone="no"?>
<svg width="30px" height="30px" viewBox="0 0 30 30" version="1.1" xmlns="http://www.w3.org/2000/svg" xmlns:xlink="http://www.w3.org/1999/xlink">
    <!-- Generator: Sketch 41.2 (35397) - http://www.bohemiancoding.com/sketch -->
    <title>Slice 1</title>
    <desc>Created with Sketch.</desc>
    <defs></defs>
    <g id="Page-1" stroke="none" stroke-width="1" fill="none" fill-rule="evenodd">
        <g id="Group" transform="translate(1.000000, 0.000000)" fill="#ffffff">
            <path d="M12.3940426,0.380851064 C13.1346809,-0.0430851064 14.0993617,-0.045 14.8393617,0.380851064 C18.562234,2.48446809 22.2862766,4.58478723 26.0085106,6.68968085 C26.708617,7.08404255 27.1769149,7.86319149 27.1697872,8.66989362 L27.1697872,21.3260638 C27.175,22.1661702 26.6604255,22.9639362 25.9218085,23.3493617 C22.2111702,25.441383 18.5024468,27.5359574 14.7924468,29.6279787 C14.0364894,30.0602128 13.0524468,30.0269149 12.3201064,29.5592553 C11.2076596,28.9143617 10.0932979,28.2726596 8.98074468,27.6284043 C8.75340426,27.4928723 8.49712766,27.385 8.33659574,27.1645745 C8.47851064,26.9732979 8.73223404,26.9494681 8.93840426,26.8659574 C9.40276596,26.7182979 9.82925532,26.4812766 10.2558511,26.2512766 C10.3637234,26.1774468 10.4954255,26.2057447 10.5988298,26.2718085 C11.5501064,26.817234 12.4929787,27.3785106 13.4474468,27.9187234 C13.6510638,28.0362766 13.857234,27.8802128 14.0312766,27.7831915 C17.6725532,25.7252128 21.3182979,23.675 24.9589362,21.616383 C25.0938298,21.5514894 25.1684043,21.4082979 25.1574468,21.2605319 C25.16,17.0855319 25.1580851,12.9097872 25.1587234,8.73478723 C25.1741489,8.56712766 25.0771277,8.41297872 24.9255319,8.3443617 C21.227766,6.26191489 17.5319149,4.1762766 13.8347872,2.09329787 C13.7036737,2.00315883 13.5306325,2.00290523 13.3992553,2.09265957 C9.70212766,4.1762766 6.00691489,6.26382979 2.30978723,8.34617021 C2.1587234,8.41489362 2.05734043,8.56648936 2.07531915,8.73478723 C2.07595745,12.9097872 2.07531915,17.0855319 2.07531915,21.2611702 C2.06218901,21.4088361 2.14242245,21.5490536 2.27638298,21.6125532 C3.26297872,22.1720213 4.25085106,22.7275532 5.23808511,23.2851064 C5.79425532,23.5844681 6.47712766,23.7623404 7.08989362,23.5329787 C7.6306383,23.3390426 8.00968085,22.787234 7.9993617,22.2130851 C8.00446809,18.0624468 7.99680851,13.9111702 8.00319149,9.76117021 C7.98968085,9.57691489 8.16446809,9.42468085 8.34361702,9.44202128 C8.81765957,9.43882979 9.29234043,9.4356383 9.76638298,9.44329787 C9.96425532,9.43882979 10.1004255,9.63723404 10.0759574,9.82287234 C10.0740426,13.9997872 10.0810638,18.1768085 10.072766,22.3537234 C10.0740426,23.4669149 9.61670213,24.6781915 8.58702128,25.2228723 C7.31851064,25.88 5.7506383,25.7406383 4.49744681,25.1105319 C3.41255319,24.5690426 2.37723404,23.93 1.31159574,23.3498936 C0.57106383,22.9665957 0.0590425532,22.1656383 0.0642553191,21.3261702 L0.0642553191,8.66989362 C0.0564893617,7.84648936 0.543404255,7.05319149 1.26531915,6.66457447 C4.97531915,4.57085106 8.68468085,2.47553191 12.3940426,0.380851064 Z" id="Shape"></path>
            <path d="M15.6306383,9.14787234 C17.2487234,9.0437234 18.9809574,9.08617021 20.4370213,9.88329787 C21.5643617,10.4941489 22.1893617,11.7761702 22.2092553,13.028617 C22.177766,13.1975532 22.0011702,13.2907447 21.8398936,13.2791489 C21.3704255,13.2785106 20.9008511,13.2855319 20.431383,13.2759574 C20.232234,13.283617 20.1164894,13.1 20.0914894,12.9239362 C19.9565957,12.3246809 19.6297872,11.7311702 19.0657447,11.4421277 C18.1998936,11.008617 17.1959574,11.0304255 16.2518085,11.0394681 C15.5625532,11.0760638 14.821383,11.1357447 14.2374468,11.5410638 C13.7891489,11.8480851 13.6529787,12.4678723 13.8129787,12.9670213 C13.9638298,13.3254255 14.3775532,13.4410638 14.7160638,13.5476596 C16.6660638,14.0576596 18.7324468,14.0069149 20.6452128,14.6780851 C21.4371277,14.9517021 22.2118085,15.483617 22.4828723,16.312766 C22.8374468,17.4240426 22.6820213,18.7523404 21.891383,19.6444681 C21.2502128,20.378617 20.316383,20.7781915 19.385,20.9952128 C18.1459574,21.2714894 16.8601064,21.2785106 15.6018085,21.1558511 C14.418617,21.0209574 13.1873404,20.7101064 12.2739362,19.9039362 C11.4928723,19.2257447 11.111383,18.1690426 11.1492553,17.1491489 C11.1582979,16.9769149 11.3297872,16.8568085 11.4947872,16.8709574 C11.9675532,16.8671277 12.4403191,16.8658511 12.9130851,16.8715957 C13.1019149,16.8580851 13.2419149,17.0212766 13.2515957,17.1992553 C13.3388298,17.7702128 13.5534043,18.3694681 14.0512766,18.7079787 C15.0121277,19.3278723 16.217766,19.2854255 17.3179787,19.302766 C18.2294681,19.2623404 19.2526596,19.2501064 19.9964894,18.6476596 C20.3889362,18.3040426 20.5052128,17.7291489 20.3991489,17.2345745 C20.2842553,16.8170213 19.8474468,16.6224468 19.4723404,16.4952128 C17.5473404,15.8862766 15.4578723,16.107234 13.5514894,15.418617 C12.7775532,15.1451064 12.0291489,14.6279787 11.7318085,13.8328723 C11.3169149,12.7075532 11.5070213,11.3156383 12.3805319,10.453617 C13.232234,9.59617021 14.4617021,9.26595745 15.6306383,9.14776596 L15.6306383,9.14787234 Z" id="Shape"></path>
        </g>
    </g>
</svg>
