<?xml version="1.0" encoding="UTF-8" standalone="no"?>
<svg width="30px" height="30px" viewBox="0 0 30 30" version="1.1" xmlns="http://www.w3.org/2000/svg" xmlns:xlink="http://www.w3.org/1999/xlink">
    <!-- Generator: Sketch 41.2 (35397) - http://www.bohemiancoding.com/sketch -->
    <title>Slice 1</title>
    <desc>Created with Sketch.</desc>
    <defs></defs>
    <g id="Page-1" stroke="none" stroke-width="1" fill="none" fill-rule="evenodd">
        <g id="react" transform="translate(0.000000, 2.000000)" fill="#ffffff">
            <path d="M24.5848018,8.67938326 C24.2669562,8.57035606 23.9464139,8.46935484 23.6234802,8.37647577 C23.6770342,8.15886419 23.7265581,7.94028054 23.7720264,7.720837 C24.4996916,4.1885022 24.0239207,1.34286344 22.399163,0.406123348 C20.8414097,-0.492290749 18.2936564,0.444449339 15.7205286,2.68361233 C15.4669801,2.904759 15.2190596,3.13227653 14.9770044,3.36594714 C14.8149066,3.21057003 14.6499444,3.05820909 14.4822026,2.90894273 C11.7855066,0.514493392 9.08246696,-0.494405286 7.45942731,0.445110132 C5.90312775,1.34603524 5.44215859,4.02132159 6.09726872,7.36889868 C6.16244761,7.70040647 6.23603964,8.03020454 6.31797357,8.35797357 C5.93550661,8.46660793 5.56612335,8.58237885 5.21273128,8.70555066 C2.05123348,9.8077533 0.0321145374,11.5353304 0.0321145374,13.3271366 C0.0321145374,15.1778855 2.19951542,17.034185 5.49264317,18.1596476 C5.7596672,18.2504842 6.02891381,18.3346513 6.30013216,18.4120705 C6.21202228,18.7651903 6.13379791,19.1207036 6.06555066,19.4781938 C5.44096916,22.7676211 5.92876652,25.3794714 7.48096916,26.2748458 C9.08418502,27.1992952 11.7749339,26.2490749 14.3951101,23.9587665 C14.6022026,23.7777093 14.8100881,23.5856828 15.0182379,23.3844053 C15.280417,23.6373647 15.5495964,23.8829667 15.8254626,24.1209251 C18.3634361,26.3048458 20.8699559,27.1867401 22.420837,26.2889868 C24.0225991,25.3617621 24.5430396,22.5559031 23.8671806,19.1421145 C23.8156388,18.8813656 23.7555066,18.6150661 23.6881057,18.3438767 C23.8770925,18.2881057 24.062511,18.2304846 24.2434361,18.1704846 C27.6668722,17.0362996 29.894141,15.2025991 29.894141,13.3271366 C29.894141,11.5288546 27.81,9.78964758 24.5848018,8.67938326 Z M23.8422026,16.9596476 C23.6789868,17.0137004 23.5114097,17.0659031 23.3406608,17.1165198 C22.9626872,15.9200881 22.4525551,14.6477974 21.8285022,13.3334802 C22.424141,12.0502203 22.9144493,10.7943172 23.2818502,9.60555066 C23.5872687,9.69409692 23.8838326,9.78726872 24.1695595,9.88572687 C26.9329956,10.8368722 28.6185463,12.2434361 28.6185463,13.3271366 C28.6185463,14.4815419 26.7980617,15.9802203 23.8423348,16.9596476 L23.8422026,16.9596476 Z M22.6157709,19.3899119 C22.9145815,20.8994273 22.9572687,22.2642291 22.7592952,23.3311454 C22.5814097,24.2898238 22.2237885,24.9289427 21.7815859,25.1849339 C20.8404846,25.7296916 18.8278414,25.0215859 16.657533,23.1539207 C16.4086784,22.9398238 16.1579736,22.7111894 15.9066079,22.4693392 C16.7480617,21.5489868 17.5889868,20.4790308 18.4096916,19.2909251 C19.8533921,19.1628634 21.2172687,18.9533921 22.454141,18.667533 C22.5149339,18.913348 22.5691189,19.1542731 22.6157709,19.3899119 L22.6157709,19.3899119 Z M10.2126872,25.090837 C9.29325991,25.4155507 8.56096916,25.4248018 8.11837004,25.1696035 C7.17634361,24.6264317 6.78488987,22.5290749 7.31894273,19.7160793 C7.38245022,19.3836423 7.4551654,19.0530307 7.53700441,18.7246256 C8.76013216,18.9951542 10.1140969,19.1898238 11.5612335,19.3071806 C12.3873568,20.4697797 13.2525991,21.5384141 14.1245815,22.4742291 C13.939262,22.6534974 13.749557,22.8281758 13.5556388,22.9981057 C12.3970044,24.0109692 11.2359912,24.7293833 10.2128194,25.090837 L10.2126872,25.090837 Z M5.90524229,16.952511 C4.44911894,16.4548018 3.24660793,15.8080176 2.4223348,15.1022907 C1.68171806,14.4679295 1.30770925,13.8381938 1.30770925,13.3271366 C1.30770925,12.2398678 2.92889868,10.8528634 5.63273128,9.91017621 C5.97210122,9.79237233 6.31484714,9.68452878 6.66052863,9.58678414 C7.03427313,10.8022467 7.52444934,12.0730837 8.11599119,13.3581938 C7.51678414,14.662467 7.01960352,15.9535242 6.64242291,17.1832599 C6.39484247,17.1123954 6.14904136,17.0354559 5.90524229,16.952511 L5.90524229,16.952511 Z M7.34920705,7.12387665 C6.78792952,4.25563877 7.16061674,2.09207048 8.09854626,1.549163 C9.0976652,0.970837004 11.306696,1.79550661 13.6350661,3.86286344 C13.7838767,3.99502203 13.933348,4.13339207 14.0830837,4.27651982 C13.2155947,5.20810573 12.3582819,6.26867841 11.5392952,7.42453744 C10.1348458,7.55471366 8.79039648,7.76378855 7.55444934,8.0438326 C7.47831587,7.73890964 7.40988004,7.43211619 7.34920705,7.12374449 L7.34920705,7.12387665 Z M20.2303084,10.3045374 C19.9383802,9.8002771 19.6356228,9.30236423 19.3222467,8.81114537 C20.2751101,8.93140969 21.1879295,9.09132159 22.0451101,9.28704846 C21.7877974,10.1118502 21.4670485,10.9743172 21.0893392,11.8584581 C20.8133679,11.334818 20.5269672,10.8167412 20.2303084,10.3045374 L20.2303084,10.3045374 Z M14.9774009,5.18814978 C15.5657709,5.82555066 16.1550661,6.53735683 16.7347137,7.30955947 C15.5589001,7.25399738 14.3811247,7.25373277 13.2052863,7.30876652 C13.7854626,6.54370044 14.3797797,5.83295154 14.9774009,5.18814978 L14.9774009,5.18814978 Z M9.69079295,10.3132599 C9.39784838,10.8213901 9.1168027,11.336288 8.84788546,11.857533 C8.47638767,10.9764317 8.15854626,10.1101322 7.89898678,9.27356828 C8.75101322,9.08286344 9.65960352,8.92704846 10.6062555,8.80876652 C10.2893674,9.30302967 9.98412908,9.80466573 9.69079295,10.3132599 L9.69079295,10.3132599 Z M10.6334802,17.9365639 C9.65550661,17.8274009 8.73317181,17.6795154 7.88140969,17.4940969 C8.14506608,16.6427313 8.46991189,15.7577974 8.84933921,14.8577974 C9.11939012,15.3794287 9.4016708,15.8946372 9.69594714,16.4029956 C9.99622617,16.9215631 10.308826,17.4328979 10.6334802,17.9365639 L10.6334802,17.9365639 Z M15.0126872,21.5562555 C14.4080617,20.9037885 13.805022,20.1822026 13.2159912,19.4060352 C13.7877093,19.4285022 14.3706608,19.4398678 14.9631278,19.4398678 C15.5718502,19.4398678 16.1735683,19.4262555 16.7657709,19.3998238 C16.1842731,20.1901322 15.5970925,20.9127753 15.0126872,21.5562555 Z M21.1014978,14.8119383 C21.5006167,15.7217181 21.8370925,16.6018943 22.1043172,17.4388546 C21.2384141,17.6364317 20.3036564,17.7955507 19.3186784,17.9137004 C19.6343196,17.4133102 19.9399748,16.9066902 20.2354626,16.394141 C20.5358439,15.8732307 20.8245938,15.3456992 21.1014978,14.8119383 L21.1014978,14.8119383 Z M19.1303524,15.7568722 C18.678,16.5426814 18.2002145,17.3135734 17.6977533,18.068326 C16.8117621,18.13163 15.8961674,18.1642731 14.9631278,18.1642731 C14.0339207,18.1642731 13.1299559,18.1353304 12.2594273,18.0788987 C11.7439343,17.3259034 11.2571105,16.5536772 10.8,15.7638767 C10.3450261,14.9782664 9.9200503,14.1756617 9.52599119,13.3577974 C9.91904801,12.539688 10.3427396,11.7366533 10.7961674,10.9503965 L10.7961674,10.9506608 C11.2494529,10.1642365 11.7324442,9.39531225 12.2440969,8.64555066 C13.1322026,8.5784141 14.0427753,8.54325991 14.9632599,8.54325991 C15.8878414,8.54325991 16.7996035,8.57867841 17.6874449,8.64634361 C18.1939224,9.39495145 18.6738245,10.1611992 19.1262555,10.9436564 C19.5812425,11.728164 20.0105885,12.527265 20.4136123,13.3396916 C20.0147342,14.1603956 19.5867537,14.9666335 19.1304846,15.7568722 L19.1303524,15.7568722 Z M21.7620264,1.51123348 C22.7619383,2.08797357 23.1508811,4.41356828 22.5225991,7.46339207 C22.4814186,7.66206966 22.4366536,7.85998739 22.388326,8.05704846 C21.1494714,7.77118943 19.8040969,7.5584141 18.3955507,7.42625551 C17.574978,6.25784141 16.7248018,5.1954185 15.8713216,4.27585903 C16.0949687,4.06024862 16.323938,3.85022788 16.5580176,3.64599119 C18.7626872,1.72731278 20.8231718,0.969779736 21.7620264,1.51123348 L21.7620264,1.51123348 Z" id="Combined-Shape"></path>
            <path d="M14.9631278,10.6605727 C16.4359031,10.6605727 17.6296916,11.8544934 17.6296916,13.3271366 C17.6296916,14.7999119 16.4359031,15.9938326 14.9631278,15.9938326 C13.4904846,15.9938326 12.2965639,14.7999119 12.2965639,13.3271366 C12.2965639,11.8544934 13.4904846,10.6605727 14.9631278,10.6605727" id="Shape"></path>
        </g>
    </g>
</svg>
