<?xml version="1.0" encoding="UTF-8" standalone="no"?>
<svg width="30px" height="30px" viewBox="0 0 30 30" version="1.1" xmlns="http://www.w3.org/2000/svg" xmlns:xlink="http://www.w3.org/1999/xlink">
    <!-- Generator: Sketch 41.2 (35397) - http://www.bohemiancoding.com/sketch -->
    <title>Slice 1</title>
    <desc>Created with Sketch.</desc>
    <defs></defs>
    <g id="Page-1" stroke="none" stroke-width="1" fill="none" fill-rule="evenodd">
        <path d="M21.6316509,17.5543112 C17.2711073,20.3643643 12.9503891,23.1491047 8.51559473,26.0064082 C15.1569861,26.9132798 21.6799139,27.8036137 28.3321054,28.7118353 C26.0661077,24.9382101 23.8581607,21.2617858 21.6316509,17.5543112 L21.6316509,17.5543112 Z M30.2072741,5.11967438 C29.6217058,5.99853317 29.0351249,6.87705445 28.4505691,7.75658825 C26.442424,10.777581 24.4349539,13.7982362 22.4291714,16.8202414 C22.3174577,16.9889931 22.1726688,17.1226444 22.3299454,17.381847 C24.2685648,20.5823915 26.1913215,23.7930611 28.1188033,27.0000182 C28.4228938,27.5066107 28.7306969,28.0111783 29.1242258,28.4971832 L30.293,5.14498713 L30.2072741,5.11967438 L30.2072741,5.11967438 Z M3.74768455,15.0989742 C3.83847295,15.1850375 4.06493772,15.2346505 4.16990127,15.1830125 C6.02920736,14.2690534 7.90032607,13.3756819 9.71913176,12.3864595 C10.3117877,12.0644813 10.7674172,11.486338 11.2787349,11.0178834 C12.9706393,9.46638034 14.6595062,7.9115023 16.3483731,6.35628674 C16.4519866,6.26077329 16.5738253,6.16863487 16.6359259,6.04814616 C17.2424195,4.8624968 17.838113,3.67144739 18.4554066,2.44529763 C17.7193118,2.16955738 17.0216923,1.89854217 16.3156352,1.6521647 C16.2197843,1.61875187 16.0692578,1.68524003 15.9646317,1.74329061 C14.3301029,2.65657475 12.6648612,3.52092089 11.0819704,4.51689335 C10.28985,5.01504833 9.64454352,5.74911817 8.9432115,6.38902457 C7.81358771,7.42043488 6.68463892,8.45420772 5.57087778,9.50384322 C5.27522482,9.7822835 5.00589713,10.1005492 4.77605733,10.4353525 C4.01397471,11.5443886 3.27551733,12.6692874 2.50229709,13.8265864 C2.93497642,14.2741159 3.32749284,14.7013952 3.74768455,15.0989742 L3.74768455,15.0989742 Z M10.54264,13.5825715 C9.61821825,17.4898481 8.69818405,21.3748494 7.74844955,25.3877646 C12.2031566,22.5176359 16.5549251,19.7136578 20.8776683,16.9282425 C17.4374964,15.8144813 14.0081247,14.7044327 10.54264,13.5825715 L10.54264,13.5825715 Z M17.9127012,7.02116839 L21.6994891,16.2323105 C24.1713638,12.5194359 26.593963,8.87979948 29.0715753,5.15713725 C25.3080752,5.78590604 21.6343509,6.39948717 17.9127012,7.02116839 Z M10.6978915,12.7833635 C14.0871004,13.883962 17.4091462,14.9622853 20.8270428,16.0716589 C19.5576926,12.9791155 18.3318804,9.99491063 17.0804179,6.94725515 L10.6978915,12.7833635 L10.6978915,12.7833635 Z M3.88774845,17.3774595 L0.342612996,25.8518317 C2.61434821,25.7846685 4.81689524,25.7195304 7.09436801,25.6523672 C6.02515732,22.8929396 4.97687184,20.1875126 3.88774845,17.3774595 L3.88774845,17.3774595 Z M7.17469382,23.6870851 L7.25839465,23.6688599 C8.06874026,20.2978762 8.89123598,16.9501802 9.71913176,13.4479077 C7.8729883,14.4070923 6.11189569,15.3224014 4.30220259,16.2630233 C5.22527432,18.6633473 6.21010917,21.1946226 7.17469382,23.6870851 L7.17469382,23.6870851 Z M27.7090742,4.61071929 C26.6307509,4.32519143 25.5534401,4.03831356 24.4741043,3.75481073 C22.9239513,3.34744415 21.3724483,2.94446512 19.8229703,2.53304851 C19.6295809,2.481748 19.4891795,2.44833516 19.3754408,2.68155 C18.8280104,3.80341121 18.2630297,4.91717235 17.7068241,6.03464603 C17.6896115,6.06940887 17.6929865,6.11463433 17.6798239,6.20069769 C21.0373074,5.6920801 24.3725158,5.18650005 27.7070491,4.68125749 L27.7090742,4.61071929 L27.7090742,4.61071929 Z M21.4544616,2.05851877 C24.3499031,2.85975178 27.2453445,3.66064729 30.242037,4.48955558 L28.7900975,0.352439204 C26.3296979,0.898182162 23.8986611,1.43717505 21.4676242,1.97616794 L21.4544616,2.05851877 L21.4544616,2.05851877 Z M24.1146632,28.8421116 L16.9052536,27.8579518 C13.9105862,27.4492352 10.9213188,26.9993432 7.91990127,26.6534022 C6.83145288,26.5281885 5.71397921,26.6436146 4.61034317,26.6621773 C3.7034716,26.6777025 2.79660004,26.7121278 1.89006597,26.7408156 C1.79657754,26.7435156 1.7034266,26.7624158 1.61061318,26.8626543 C9.10656314,27.5558862 16.6031881,28.2487807 24.0988006,28.9423501 L24.1146632,28.8421116 L24.1146632,28.8421116 Z M0.490439474,23.2652058 C1.45704914,21.0238459 2.41825875,18.7807985 3.38824345,16.5414636 C3.48544442,16.3163488 3.47835685,16.1641348 3.28834245,15.9835705 C2.88232589,15.5971292 2.50567213,15.1809875 2.06185519,14.7199579 L0.293,23.4515077 L0.358138151,23.482558 C0.4030261,23.4103323 0.457364144,23.3428316 0.490439474,23.2652058 Z M19.5296799,1.46687535 C21.1588087,1.04634614 22.8115627,0.718292863 24.4545291,0.351426694 C24.5605052,0.327463955 24.6644562,0.292363604 24.7690823,0.262325803 L24.7532196,0.182 L17.693999,1.13139699 C18.3571931,1.42131239 18.8678357,1.63765206 19.5296799,1.46687535 L19.5296799,1.46687535 Z" id="Shape" fill="#ffffff"></path>
    </g>
</svg>
