<?xml version="1.0" encoding="UTF-8" standalone="no"?>
<svg width="30px" height="30px" viewBox="0 0 30 30" version="1.1" xmlns="http://www.w3.org/2000/svg" xmlns:xlink="http://www.w3.org/1999/xlink">
    <!-- Generator: Sketch 41.2 (35397) - http://www.bohemiancoding.com/sketch -->
    <title>Slice 1</title>
    <desc>Created with Sketch.</desc>
    <defs></defs>
    <g id="Page-1" stroke="none" stroke-width="1" fill="none" fill-rule="evenodd">
        <path d="M25.7097734,16.1534194 C24.6608537,16.1593379 23.7525713,16.4112544 22.990786,16.7863457 C22.7095115,16.2296565 22.4282369,15.7432273 22.3814164,15.379973 C22.3286775,14.9580611 22.2642187,14.7001675 22.3286775,14.1962759 C22.3930776,13.692267 22.6860719,12.9773609 22.6860719,12.918762 C22.6801535,12.866023 22.6215546,12.608188 22.0180449,12.6023281 C21.4145352,12.5964682 20.8929466,12.7195259 20.8343478,12.8777428 C20.7757489,13.0359597 20.6585512,13.3992727 20.5823727,13.7743054 C20.4768947,14.3251348 19.375236,16.276477 18.7482282,17.3019572 C18.5431321,16.9034849 18.3673355,16.5518917 18.3321176,16.2705585 C18.2794372,15.8487053 18.2149199,15.5908117 18.2794372,15.08692 C18.343896,14.5829112 18.6368903,13.8680636 18.6368903,13.8094648 C18.6310304,13.7567258 18.5724316,13.4988908 17.9689218,13.4930309 C17.3652949,13.487171 16.8438236,13.6102286 16.7852248,13.7684456 C16.7266259,13.9266625 16.6621671,14.3016952 16.5332496,14.6650082 C16.4101334,15.0283212 14.9451618,18.2864181 14.5642691,19.1361017 C14.3708929,19.5697333 14.2010148,19.9154666 14.0778985,20.149862 C13.9548409,20.3842575 14.0720387,20.1674417 14.0603189,20.1908812 C13.9548409,20.3901174 13.8962421,20.5014552 13.8962421,20.5014552 L13.8962421,20.5073737 C13.8142037,20.6538709 13.7263054,20.7944496 13.6852275,20.7944496 C13.6559281,20.7944496 13.5973292,20.4018372 13.6969473,19.8627862 C13.9137631,18.7317695 14.4411529,16.9680022 14.4353516,16.9035435 C14.4353516,16.874244 14.5349111,16.5636115 14.0954196,16.4054531 C13.6676479,16.2472362 13.5153494,16.5109311 13.4801315,16.5109311 C13.4449722,16.5109311 13.4156728,16.6046893 13.4156728,16.6046893 C13.4156728,16.6046893 13.8903236,14.6182463 12.5073903,14.6182463 C11.6401271,14.6182463 10.4447103,15.561688 9.85286172,16.4230914 C9.47782898,16.6281874 8.6808844,17.0617604 7.83706074,17.5247501 C7.51476697,17.7005466 7.18075344,17.888063 6.86431956,18.0579997 L6.79991941,17.9875639 C5.12399185,16.2002985 2.02411184,14.934563 2.15302935,12.5320095 C2.19990844,11.6588864 2.50462254,9.35595095 8.10673272,6.56664494 C12.6950239,4.28128917 16.3691728,4.90829703 17.0078418,6.30295004 C17.9161243,8.29531148 15.0447798,11.9987598 10.2748908,12.5320095 C8.45832591,12.7371055 7.5031058,12.0339191 7.26290905,11.7702242 C7.01093392,11.4948096 6.97577461,11.4830898 6.88201642,11.5358288 C6.72965937,11.6178672 6.82341755,11.8639824 6.88201642,12.0104796 C7.0226537,12.3796524 7.60864236,13.0359597 8.60482308,13.3641134 C9.47788758,13.6512478 11.6109449,13.8094648 14.189295,12.813284 C17.0782191,11.6940457 19.3342754,8.58830581 18.6721082,5.99237605 C17.9982213,3.3495672 13.6150261,2.48230399 9.47208629,3.95313552 C7.00501544,4.83211851 4.33290716,6.20333197 2.41086436,8.00231715 C0.125508587,10.1353159 -0.237804381,11.9987598 -0.0854473297,12.7722648 C0.447860948,15.5322714 4.25086874,17.3312566 5.77443926,18.6614509 C5.69826073,18.7024115 5.62794209,18.7434307 5.56348334,18.7786486 C4.80169808,19.1536227 1.90105422,20.6713919 1.17442829,22.2769423 C0.354044164,24.0935071 1.30334579,25.4003204 1.93621354,25.576117 C3.89341566,26.1210865 5.89749687,25.1424854 6.98157589,23.5310166 C8.05973643,21.9195478 7.93087752,19.8275683 7.43278716,18.8724068 L7.4151489,18.8372474 L8.01285733,18.4856543 C8.39966845,18.2571187 8.78056107,18.0461628 9.11451601,17.8644477 C8.92705824,18.3742578 8.79222225,18.9778261 8.72196221,19.8568091 C8.6399238,20.8882078 9.06183563,22.2242033 9.61852486,22.7515931 C9.86464009,22.9800701 10.1576344,22.9859886 10.3392909,22.9859886 C10.9838784,22.9859886 11.2768728,22.4526803 11.5991665,21.8140112 C11.9976388,21.0346463 12.349232,20.1322238 12.349232,20.1322238 C12.349232,20.1322238 11.9097405,22.5757965 13.1110173,22.5757965 C13.5505088,22.5757965 13.9900002,22.0073875 14.1892364,21.7143932 L14.1892364,21.720253 C14.1892364,21.720253 14.2009562,21.7026734 14.2243957,21.6616542 C14.248983,21.6252989 14.2724339,21.5881879 14.2947144,21.5503749 L14.2947144,21.5386552 C14.4705109,21.2339411 14.8631234,20.5366146 15.449112,19.3822169 C16.2049788,17.8938057 16.9316633,16.0303618 16.9316633,16.0303618 C16.9316633,16.0303618 17.001982,16.4874329 17.2187978,17.2374984 C17.3476567,17.6829084 17.6289312,18.1692204 17.845747,18.6438712 C17.6699504,18.8899864 17.5644725,19.0306823 17.5644725,19.0306823 L17.5703324,19.0365422 C17.4297537,19.2240586 17.2714781,19.4233533 17.1074599,19.6225308 C16.5097515,20.337437 15.7948453,21.1520198 15.7010871,21.3864153 C15.5897493,21.6617714 15.6131888,21.8668674 15.8300046,22.0310028 C15.9882216,22.1482006 16.2694961,22.1715815 16.5683503,22.1482006 C17.1074599,22.1129826 17.4824927,21.9782639 17.670009,21.8961668 C17.9630034,21.7906889 18.2970169,21.6324719 18.6193107,21.3980765 C19.2052993,20.9645035 19.5627524,20.3492154 19.5275931,19.5288313 C19.5100134,19.07762 19.3635162,18.6322686 19.1818598,18.2103568 C19.2345987,18.1341783 19.2873963,18.0579411 19.3400767,17.9759613 C20.2659388,16.6222689 20.9808449,15.1339163 20.9808449,15.1339163 C20.9808449,15.1339163 21.0511636,15.5909875 21.2679794,16.341053 C21.3792586,16.7219456 21.6019929,17.1380561 21.8012291,17.5482482 C20.9339659,18.2572945 20.3889964,19.0776786 20.20148,19.6167882 C19.8557467,20.6129689 20.1253015,21.0641801 20.6351116,21.1696581 C20.8635886,21.2165372 21.1918009,21.1110592 21.4378575,21.0055813 C21.7425716,20.9059632 22.1117445,20.7359679 22.4516765,20.4840514 C23.0376651,20.0504198 23.6002143,19.4468514 23.5709148,18.6323272 C23.5533352,18.2572945 23.4537171,17.8881216 23.3189397,17.5365284 C24.0572854,17.2318143 25.0123883,17.0560177 26.2254434,17.2025149 C28.833093,17.507229 29.348763,19.1362775 29.2492035,19.8160243 C29.1495854,20.4958297 28.604616,20.8708039 28.4229009,20.9880016 C28.2412444,21.0993395 28.1826456,21.1404173 28.2002252,21.2223971 C28.2236648,21.3455133 28.3057032,21.3395948 28.4639201,21.3162139 C28.6807359,21.280996 29.8351336,20.7595246 29.8820127,19.5055675 C29.9523313,17.8938643 28.4229009,16.1358983 25.7097734,16.1534194 L25.7097734,16.1534194 Z M5.59864266,22.9333082 C4.73723933,23.8767499 3.52424281,24.234203 3.00857279,23.9294889 C2.45188356,23.6071951 2.66864077,22.218402 3.72933884,21.2163614 C4.37392636,20.6069332 5.21189014,20.0443841 5.76271948,19.6986508 C5.8857771,19.6224723 6.07329347,19.511193 6.29596916,19.376357 C6.33112848,19.3529761 6.35456803,19.3411977 6.35456803,19.3411977 C6.39558723,19.3177581 6.44246633,19.2884587 6.48934542,19.2591593 C6.88195782,20.6889716 6.50692508,21.9429873 5.59864266,22.9333082 L5.59864266,22.9333082 Z M11.8980207,18.6497311 C11.5991665,19.3822169 10.9662988,21.2632405 10.5854061,21.1577625 C10.2571939,21.0698642 10.0580164,19.6459118 10.5208888,18.239539 C10.7552843,17.5304341 11.2533746,16.6866691 11.5463689,16.3584568 C12.0210784,15.831067 12.5366898,15.6552704 12.6656659,15.8720862 C12.8180229,16.1534194 12.0855371,18.1926599 11.8980207,18.6497311 Z M17.0957401,21.134323 C16.9668226,21.1988403 16.8496249,21.2456608 16.7968859,21.2105601 C16.7558667,21.1871206 16.8495663,21.0992223 16.8495663,21.0992223 C16.8495663,21.0992223 17.5000137,20.4018958 17.7578487,20.079602 C17.9043459,19.8921442 18.0801425,19.6753284 18.2676589,19.4291546 L18.2676589,19.4994732 C18.2677175,20.3432383 17.4590531,20.9057874 17.0957401,21.134323 Z M21.103844,20.2201807 C21.0100858,20.149862 21.0218642,19.9330462 21.3382394,19.2532994 C21.4613556,18.9837446 21.7425716,18.5325333 22.2289422,18.1047616 C22.2875411,18.2805582 22.322759,18.4504363 22.3168405,18.6087119 C22.3110392,19.6634915 21.5609737,20.0561039 21.103844,20.2201807 Z" id="Shape" fill="#ffffff"></path>
    </g>
</svg>
