<?xml version="1.0" encoding="UTF-8" standalone="no"?>
<svg width="30px" height="30px" viewBox="0 0 30 30" version="1.1" xmlns="http://www.w3.org/2000/svg" xmlns:xlink="http://www.w3.org/1999/xlink">
    <!-- Generator: Sketch 41.2 (35397) - http://www.bohemiancoding.com/sketch -->
    <title>Slice 1</title>
    <desc>Created with Sketch.</desc>
    <defs></defs>
    <g id="Page-1" stroke="none" stroke-width="1" fill="none" fill-rule="evenodd">
        <g id="webpack-icon" transform="translate(2.000000, 0.000000)" fill="#ffffff">
            <path d="M26.2093023,23.119186 L14.0552326,29.994186 L14.0552326,24.6395349 L21.627907,20.4738372 L26.2093023,23.119186 Z M27.0406977,22.3662791 L27.0406977,7.98837209 L22.5930233,10.5552326 L22.5930233,19.7965116 L27.0406977,22.3662791 Z M0.834302326,23.119186 L12.9883721,29.994186 L12.9883721,24.6395349 L5.41569767,20.4738372 L0.834302326,23.119186 L0.834302326,23.119186 Z M0.00290697674,22.3662791 L0.00290697674,7.98837209 L4.4505814,10.5552326 L4.4505814,19.7965116 L0.00290697674,22.3662791 L0.00290697674,22.3662791 Z M0.523255814,7.05813953 L12.9883721,0.00581395349 L12.9883721,5.18313953 L5.00290698,9.5755814 L4.94186047,9.61046512 L0.523255814,7.05813953 L0.523255814,7.05813953 Z M26.5203488,7.05813953 L14.0552326,0.00581395349 L14.0552326,5.18313953 L22.0406977,9.5755814 L22.1017442,9.61046512 L26.5203488,7.05813953 L26.5203488,7.05813953 Z" id="Shape"></path>
            <path d="M12.9883721,23.4215116 L5.51744186,19.3139535 L5.51744186,11.1744186 L12.9883721,15.4883721 L12.9883721,23.4215116 M14.0552326,23.4215116 L21.5261628,19.3139535 L21.5261628,11.1744186 L14.0552326,15.4883721 L14.0552326,23.4215116 M6.02325581,10.2325581 L13.5232558,6.10755814 L21.0232558,10.2325581 L13.5232558,14.5639535 L6.02325581,10.2325581" id="Shape"></path>
        </g>
    </g>
</svg>
