<?xml version="1.0" encoding="UTF-8" standalone="no"?>
<svg width="30px" height="30px" viewBox="0 0 30 30" version="1.1" xmlns="http://www.w3.org/2000/svg" xmlns:xlink="http://www.w3.org/1999/xlink">
    <!-- Generator: Sketch 41.2 (35397) - http://www.bohemiancoding.com/sketch -->
    <title>Slice 1</title>
    <desc>Created with Sketch.</desc>
    <defs></defs>
    <g id="Page-1" stroke="none" stroke-width="1" fill="none" fill-rule="evenodd">
        <path d="M27.8606467,24.0096098 C26.3147631,24.3767572 25.5321595,24.7149192 23.6191286,25.9612879 C20.6239791,27.8936424 17.3582999,28.7921872 17.3582999,28.7921872 C17.3582999,28.7921872 17.0877703,29.1979817 16.3051667,29.3815553 C14.9525186,29.7100556 9.86076445,29.990247 9.39699937,29.9999088 C8.15063071,30.0095706 7.38735068,29.6810703 7.17479169,29.1689963 C6.52745293,27.6231127 8.10232185,26.9467887 8.10232185,26.9467887 C8.10232185,26.9467887 7.75449804,26.7342297 7.55160082,26.5409942 C7.36802714,26.3574205 7.17479169,25.9902732 7.11682105,26.125538 C6.87527674,26.7149061 6.7496737,28.1545102 6.10233494,28.801849 C5.21345186,29.7003938 3.53230344,29.4008789 2.53714087,28.8791432 C1.44536057,28.2994368 2.61443505,26.9371269 2.61443505,26.9371269 C2.61443505,26.9371269 2.02506692,27.2849507 1.55164007,26.5699795 C1.12652208,25.912979 0.730389403,24.7922134 0.836668901,23.4105799 C0.971933716,21.8163874 2.73037632,20.2898274 2.73037632,20.2898274 C2.73037632,20.2898274 2.4211996,17.9613402 3.43568571,15.5748824 C4.35355411,13.4009836 6.82696788,11.6522027 6.82696788,11.6522027 C6.82696788,11.6522027 4.74968678,9.36236264 5.52262858,7.28508154 C6.02504076,5.93243338 6.22793798,5.94209516 6.39218811,5.88412452 C6.97189446,5.66190375 7.53227727,5.42035944 7.94773349,4.96625613 C10.0250146,2.7247249 12.6723403,3.14984289 12.6723403,3.14984289 C12.6723403,3.14984289 13.9090472,-0.647233717 15.0684599,0.0967227686 C15.4259454,0.32860531 16.7109612,3.18848998 16.7109612,3.18848998 C16.7109612,3.18848998 18.0829329,2.38656286 18.2375212,2.68607781 C19.0684337,4.29959382 19.1650514,7.38169927 18.7979041,9.25608314 C18.1795506,12.3478504 16.633667,14.0096752 16.0153136,15.0531467 C15.870387,15.294691 17.6771384,16.057971 18.8172276,19.2173706 C19.8703608,22.1062406 18.9331689,24.5313455 19.097419,24.8018752 C19.1264043,24.850184 19.1360661,24.8695076 19.1360661,24.8695076 C19.1360661,24.8695076 20.3437877,24.9661253 22.7688926,23.4685505 C24.0635701,22.6666234 25.5997919,21.7680786 27.3485728,21.748755 C29.039383,21.7197697 29.1263389,23.7100949 27.8606467,24.0096098 L27.8606467,24.0096098 Z" id="Shape" fill="#ffffff"></path>
    </g>
</svg>
