<?xml version="1.0" encoding="UTF-8" standalone="no"?>
<svg width="150px" height="150px" viewBox="0 0 150 150" version="1.1" xmlns="http://www.w3.org/2000/svg" xmlns:xlink="http://www.w3.org/1999/xlink">
    <!-- Generator: Sketch 41.2 (35397) - http://www.bohemiancoding.com/sketch -->
    <title>Slice 1</title>
    <desc>Created with Sketch.</desc>
    <defs></defs>
    <g id="Page-1" stroke="none" stroke-width="1" fill="none" fill-rule="evenodd">
        <path d="M57.1083984,124.043945 L79.9307477,146.866295 C79.9307477,146.866295 108.192383,146.310547 128.919922,123.043945 C149.647461,99.7773438 147.386678,77.0548671 147.386678,77.0548671 L102.547345,25.2155336 L89.0903661,39.2251436 L79.9307477,29.2919922 L63.2910156,66.0839844 L57.1083984,124.043945 Z" id="Path-2" fill-opacity="0.15" fill="#000000"></path>
        <path d="M75,150 C116.421356,150 150,116.421356 150,75 C150,33.5786438 116.421356,0 75,0 C33.5786438,0 0,33.5786438 0,75 C0,116.421356 33.5786438,150 75,150 Z M75,145 C113.659932,145 145,113.659932 145,75 C145,36.3400675 113.659932,5 75,5 C36.3400675,5 5,36.3400675 5,75 C5,113.659932 36.3400675,145 75,145 Z" id="Combined-Shape" fill-opacity="0.35" fill="#FFFFFF"></path>
        <polygon id="Shape" fill="#FFFFFF" points="72.483871 29.2125237 68.0056926 49.743833 37 73.0834915 56.886148 124.354839 69.3339658 72.5521822 81.3643264 72.8178368 71.686907 125 113.963947 70.6925996 93.8121442 70.6925996 102.844402 25 76.4686907 43.5199241 79.2390892 29.3643264"></polygon>
    </g>
</svg>
