<?xml version="1.0" encoding="utf-8"?>
<!-- Generator: Adobe Illustrator 19.0.0, SVG Export Plug-In . SVG Version: 6.00 Build 0)  -->
<svg version="1.1" id="Layer_1" xmlns="http://www.w3.org/2000/svg" xmlns:xlink="http://www.w3.org/1999/xlink" x="0px" y="0px"
	 viewBox="0 0 30 30" style="enable-background:new 0 0 30 30;" xml:space="preserve">
<style type="text/css">
	.st0{fill:#FFFFFF;}
</style>
<g id="XMLID_8_">
	<path id="XMLID_13_" class="st0" d="M22.9,9c-0.2-0.5-0.4-0.8-0.8-1.2c-0.4-0.4-0.7-0.6-1.2-0.8c-0.4-0.1-0.9-0.3-1.9-0.4
		c-1.1,0-1.4-0.1-4.1-0.1s-3,0-4.1,0.1c-1,0-1.5,0.2-1.9,0.4C8.5,7.2,8.2,7.5,7.8,7.8C7.5,8.2,7.2,8.5,7.1,9
		c-0.1,0.4-0.3,0.9-0.4,1.9c0,1.1-0.1,1.4-0.1,4.1c0,2.7,0,3,0.1,4.1c0,1,0.2,1.5,0.4,1.9c0.2,0.5,0.4,0.8,0.8,1.2
		c0.4,0.4,0.7,0.6,1.2,0.8c0.4,0.1,0.9,0.3,1.9,0.4c1.1,0,1.4,0.1,4.1,0.1s3,0,4.1-0.1c1,0,1.5-0.2,1.9-0.4c0.5-0.2,0.8-0.4,1.2-0.8
		c0.4-0.4,0.6-0.7,0.8-1.2c0.1-0.4,0.3-0.9,0.4-1.9c0-1.1,0.1-1.4,0.1-4.1c0-2.7,0-3-0.1-4.1C23.2,9.9,23.1,9.4,22.9,9z M15,20.2
		c-2.9,0-5.2-2.3-5.2-5.2c0-2.9,2.3-5.2,5.2-5.2s5.2,2.3,5.2,5.2C20.2,17.9,17.9,20.2,15,20.2z M20.4,10.8c-0.7,0-1.2-0.5-1.2-1.2
		s0.5-1.2,1.2-1.2c0.7,0,1.2,0.5,1.2,1.2S21.1,10.8,20.4,10.8z"/>
	<path id="XMLID_17_" class="st0" d="M15,0C6.7,0,0,6.7,0,15c0,8.3,6.7,15,15,15s15-6.7,15-15C30,6.7,23.3,0,15,0z M25.1,19.2
		c0,1.1-0.2,1.8-0.5,2.5c-0.3,0.7-0.6,1.2-1.2,1.8c-0.6,0.6-1.1,0.9-1.8,1.2c-0.6,0.3-1.4,0.4-2.5,0.5c-1.1,0-1.4,0.1-4.2,0.1
		s-3.1,0-4.2-0.1c-1.1,0-1.8-0.2-2.5-0.5c-0.7-0.3-1.2-0.6-1.8-1.2c-0.6-0.6-0.9-1.1-1.2-1.8c-0.3-0.6-0.4-1.4-0.5-2.5
		c0-1.1-0.1-1.4-0.1-4.2c0-2.8,0-3.1,0.1-4.2c0-1.1,0.2-1.8,0.5-2.5C5.6,7.7,6,7.1,6.5,6.5C7.1,6,7.7,5.6,8.3,5.3
		C9,5.1,9.7,4.9,10.8,4.9c1.1,0,1.4-0.1,4.2-0.1s3.1,0,4.2,0.1c1.1,0,1.8,0.2,2.5,0.5c0.7,0.3,1.2,0.6,1.8,1.2
		c0.6,0.6,0.9,1.1,1.2,1.8c0.3,0.6,0.4,1.4,0.5,2.5c0,1.1,0.1,1.4,0.1,4.2C25.2,17.8,25.2,18.1,25.1,19.2z"/>
	<circle id="XMLID_18_" class="st0" cx="15" cy="15" r="3.4"/>
</g>
</svg>
