<?xml version="1.0" encoding="UTF-8" standalone="no"?>
<svg width="30px" height="30px" viewBox="0 0 30 30" version="1.1" xmlns="http://www.w3.org/2000/svg" xmlns:xlink="http://www.w3.org/1999/xlink">
    <!-- Generator: Sketch 41.2 (35397) - http://www.bohemiancoding.com/sketch -->
    <title>Slice 1</title>
    <desc>Created with Sketch.</desc>
    <defs></defs>
    <g id="Page-1" stroke="none" stroke-width="1" fill="none" fill-rule="evenodd">
        <path d="M15,30 C23.2842712,30 30,23.2842712 30,15 C30,6.71572875 23.2842712,0 15,0 C6.71572875,0 0,6.71572875 0,15 C0,23.2842712 6.71572875,30 15,30 Z M10.6662169,11.5023716 L7,11.5023716 L7,22.5010224 L10.6662169,22.5010224 L10.6662169,11.5023716 Z M11.1164541,8.86526826 C11.1164541,7.77183514 10.3446189,7 9.05822704,7 C7.83615473,7 7,7.83615473 7,8.86526826 C7,9.89438177 7.77183514,10.7305365 8.99390745,10.7305365 C10.2802993,10.7948561 11.1164541,9.89438177 11.1164541,8.86526826 Z M23.7552544,16.4549805 C23.7552544,13.1103615 21.9543058,11.5023716 19.5744808,11.5023716 C17.6448929,11.5023716 16.7444186,12.5958048 16.2941815,13.3033203 L16.2941815,11.75965 L12.6279646,11.75965 C12.6922841,12.7887635 12.6279646,22.7583008 12.6279646,22.7583008 L16.2941815,22.7583008 L16.2941815,16.6479392 C16.2941815,16.3263413 16.2941815,16.0047433 16.4228207,15.7474649 C16.680099,15.104269 17.2589754,14.3967534 18.2880889,14.3967534 C19.6388004,14.3967534 20.1533571,15.4258669 20.1533571,16.9052176 L20.1533571,22.7583008 L23.8195741,22.7583008 L23.7552544,16.4549805 Z" id="Combined-Shape" fill="#FFFFFF"></path>
    </g>
</svg>