<?xml version="1.0" encoding="UTF-8" standalone="no"?>
<svg width="30px" height="30px" viewBox="0 0 30 30" version="1.1" xmlns="http://www.w3.org/2000/svg" xmlns:xlink="http://www.w3.org/1999/xlink">
    <!-- Generator: Sketch 41.2 (35397) - http://www.bohemiancoding.com/sketch -->
    <title>Slice 1</title>
    <desc>Created with Sketch.</desc>
    <defs></defs>
    <g id="Page-1" stroke="none" stroke-width="1" fill="none" fill-rule="evenodd">
        <g id="Group" fill="#FFFFFF">
            <path d="M15,30 C23.2842712,30 30,23.2842712 30,15 C30,6.71572875 23.2842712,0 15,0 C6.71572875,0 0,6.71572875 0,15 C0,23.2842712 6.71572875,30 15,30 Z M11.1136592,23.5130447 C19.019581,23.5130447 23.342933,16.9632402 23.342933,11.2837709 C23.342933,11.0976536 23.339162,10.9123743 23.3306145,10.7281006 C24.1697765,10.1214804 24.8993296,9.36452514 25.4748603,8.50265363 C24.7046648,8.84472067 23.8758939,9.0753352 23.0064804,9.17924581 C23.8939106,8.6472905 24.5751955,7.80527933 24.8964804,6.80170391 C24.0658659,7.29402235 23.1463408,7.65209497 22.1673184,7.8449162 C21.3830447,7.00952514 20.2660056,6.48695531 19.0299721,6.48695531 C16.6561173,6.48695531 14.7311732,8.41189944 14.7311732,10.7848324 C14.7311732,11.1222067 14.7689665,11.4501117 14.8426257,11.7648603 C11.2705307,11.5852793 8.10293296,9.87486034 5.98324022,7.27416201 C5.61377095,7.90918994 5.40117318,8.6472905 5.40117318,9.43441341 C5.40117318,10.9256983 6.15997207,12.242095 7.31379888,13.0122067 C6.60888268,12.9905028 5.94645251,12.7967598 5.36715084,12.4744693 C5.36614525,12.4924022 5.36614525,12.510419 5.36614525,12.5292737 C5.36614525,14.6111732 6.84796089,16.3489944 8.81446927,16.7431006 C8.45354749,16.8413128 8.07360335,16.8942737 7.68142458,16.8942737 C7.40455307,16.8942737 7.13522346,16.8668715 6.87343575,16.8167598 C7.42064246,18.5244134 9.0072905,19.767067 10.888743,19.802095 C9.41740223,20.9549162 7.56427374,21.6418994 5.55050279,21.6418994 C5.20365922,21.6418994 4.86159218,21.6221229 4.52513966,21.5824022 C6.4274581,22.8014246 8.68600559,23.5130447 11.1136592,23.5130447 Z" id="Combined-Shape"></path>
        </g>
    </g>
</svg>