<?xml version="1.0" encoding="UTF-8" standalone="no"?>
<svg width="30px" height="30px" viewBox="0 0 30 30" version="1.1" xmlns="http://www.w3.org/2000/svg" xmlns:xlink="http://www.w3.org/1999/xlink">
    <!-- Generator: Sketch 41.2 (35397) - http://www.bohemiancoding.com/sketch -->
    <title>Slice 1</title>
    <desc>Created with Sketch.</desc>
    <defs></defs>
    <g id="Page-1" stroke="none" stroke-width="1" fill="none" fill-rule="evenodd">
        <path d="M15,30 C23.2842712,30 30,23.2842712 30,15 C30,6.71572875 23.2842712,0 15,0 C6.71572875,0 0,6.71572875 0,15 C0,23.2842712 6.71572875,30 15,30 Z M24.98971,10.2396935 C24.89626,12.2682321 23.46847,15.0459551 20.70697,18.5714067 C17.85181,22.2540996 15.43618,24.0952381 13.46008,24.0952381 C12.23641,24.0952381 11.20006,22.9741653 10.35418,20.7311877 C9.78886,18.6751943 9.22417,16.6194089 8.65906,14.5634154 C8.03053,12.3216858 7.35664,11.1993651 6.63613,11.1993651 C6.47905,11.1993651 5.92927,11.5273673 4.98805,12.1808758 L4,10.9177449 C5.03635,10.014023 6.05884,9.11050903 7.06474,8.20574713 C8.44696,7.02040504 9.48457,6.39705528 10.1761,6.33403394 C11.81053,6.17824849 12.81643,7.28684182 13.19401,9.66002189 C13.60204,12.2203941 13.88428,13.812983 14.04304,14.4363328 C14.51407,16.5605473 15.03235,17.6213027 15.59872,17.6213027 C16.03825,17.6213027 16.69849,16.9324357 17.57881,15.5547017 C18.45829,14.1765517 18.92932,13.1280679 18.99295,12.4077942 C19.11811,11.2185003 18.64687,10.6223974 17.57881,10.6223974 C17.07607,10.6223974 16.55779,10.7372085 16.0246,10.964127 C17.05654,7.60943623 19.02844,5.98024083 21.93904,6.07321292 C24.09679,6.13602627 25.11403,7.5247838 24.98971,10.2396935 Z" id="Combined-Shape" fill="#FFFFFF"></path>
    </g>
</svg>